<?xml version="1.0" encoding="utf-8"?>
<!-- Generator: Adobe Illustrator 24.0.2, SVG Export Plug-In . SVG Version: 6.00 Build 0)  -->
<svg version="1.1" id="Layer_1" xmlns="http://www.w3.org/2000/svg" xmlns:xlink="http://www.w3.org/1999/xlink" x="0px" y="0px"
	 viewBox="0 0 480 480" style="enable-background:new 0 0 480 480;" xml:space="preserve">
<style type="text/css">
	.st0{fill:#FF41C8;}
	.st1{fill:#16020B;}
</style>
<path class="st0" d="M5,57.2C5,28.4,28.4,5,57.2,5h365.6C451.6,5,475,28.4,475,57.2v365.6c0,28.8-23.4,52.2-52.2,52.2H57.2
	C28.4,475,5,451.6,5,422.8V57.2z"/>
<path class="st1" d="M44.2,44.2v391.7h391.7V44.2H44.2z M175.9,209.9l25-63.8h43l-43.6,92.1l44.6,93.6h-43.5l-25.5-64.9l-25.4,64.9
	h-43.5l44.6-93.6L108,146.2h43L175.9,209.9z M254,258.6c0-22.6,3.8-39.5,11.5-50.6c7.7-11.1,18.8-16.7,33.4-16.7
	c10.6,0,19.5,4.6,26.5,13.8V136h36.3v195.8h-32.8l-1.7-14c-7.4,11.1-16.9,16.6-28.6,16.6c-14.4,0-25.5-5.5-33.1-16.6
	c-7.6-11.1-11.5-27.3-11.7-48.7L254,258.6L254,258.6z M290.2,267.7c0,13.6,1.4,23.1,4.3,28.5c2.9,5.4,7.8,8.1,14.7,8.1
	c7.1,0,12.5-3.2,16.2-9.6v-63c-3.6-6.8-8.9-10.2-16.1-10.2c-6.6,0-11.5,2.7-14.5,8c-3.1,5.4-4.6,14.9-4.6,28.6V267.7z"/>
</svg>
